<svg xmlns="http://www.w3.org/2000/svg" width="24" height="24" viewBox="0 0 24 24">
    <g fill="none" fill-rule="evenodd">
        <path stroke="#060505" stroke-width="1.2" d="M6.334 20.823l3.223-1.78.235.064a8.4 8.4 0 1 0-3.694-2.13l.174.172.062 3.674z"/>
        <path fill="#FFE95E" fill-rule="nonzero" d="M9.065 23.616l2.412-1.323c.308-.169.67-.212 1.01-.12a8.87 8.87 0 0 0 2.313.305c4.86 0 8.8-3.913 8.8-8.74C23.6 8.914 19.66 5 14.8 5 9.94 5 6 8.913 6 13.739c0 2.37.952 4.586 2.617 6.218.252.247.396.582.402.934l.046 2.725z"/>
        <path fill="#060505" fill-rule="nonzero" d="M6.917 19.816l2.137-1.18a1.2 1.2 0 0 1 .895-.108 7.8 7.8 0 1 0-3.43-1.978c.224.22.352.52.357.833l.041 2.433zM5.751 21.83l-.075-4.426a9 9 0 1 1 3.958 2.282L5.751 21.83z"/>
    </g>
</svg>
