<svg xmlns="http://www.w3.org/2000/svg" width="24" height="24" viewBox="0 0 24 24">
    <path fill="#000" fill-rule="evenodd" d="M17.096 3.171c-2.083 0-3.748 1.56-4.783 2.593-1.056-1.024-2.752-2.593-4.83-2.593-3.044 0-5.157 2.113-5.157 5.143 0 6.579 8.744 12 9.13 12.219a1.32 1.32 0 0 0 1.379 0c.37-.227 9.074-5.674 9.074-12.214-.03-3.176-1.861-5.148-4.813-5.148zm-5 16.286S3.6 14.271 3.6 8.314c0-2.301 1.517-3.857 3.852-3.857s4.409 3 4.844 3c.434 0 2.447-3 4.782-3s3.479 1.556 3.479 3.857c.017 5.902-8.461 11.143-8.461 11.143z"/>
</svg>
