<svg xmlns="http://www.w3.org/2000/svg" width="16" height="16" viewBox="0 0 16 16">
    <g fill="none" fill-rule="evenodd">
        <path fill="#FFE95E" d="M5.222 4.778C5.222 3.796 6.01 3 7.005 3h2.656c.985 0 1.783.79 1.783 1.778h.89A2.67 2.67 0 0 1 15 7.445V11a2.667 2.667 0 0 1-2.666 2.667H4.333A2.67 2.67 0 0 1 1.667 11V7.445a2.667 2.667 0 0 1 2.666-2.667h.89z"/>
        <path fill="#060505" fill-rule="nonzero" d="M5.333 4.444a.444.444 0 0 1-.444.445h-.89A2.223 2.223 0 0 0 1.778 7.11v3.555c0 1.225.996 2.223 2.221 2.223h8.002a2.223 2.223 0 0 0 2.221-2.223V7.111a2.225 2.225 0 0 0-2.221-2.222h-.89a.444.444 0 0 1-.444-.445c0-.734-.6-1.333-1.339-1.333H6.672c-.738 0-1.339.598-1.339 1.333zM4.49 4a2.229 2.229 0 0 1 2.183-1.778h2.656c1.077 0 1.976.764 2.183 1.778H12a3.114 3.114 0 0 1 3.11 3.111v3.555a3.112 3.112 0 0 1-3.11 3.112H3.999a3.114 3.114 0 0 1-3.11-3.112V7.111A3.112 3.112 0 0 1 3.999 4h.49z"/>
        <path fill="#060505" fill-rule="nonzero" d="M5.778 8.889c0 1.225.996 2.222 2.222 2.222a2.224 2.224 0 0 0 2.222-2.222A2.224 2.224 0 0 0 8 6.667a2.224 2.224 0 0 0-2.222 2.222zm-.89 0A3.113 3.113 0 0 1 8 5.778a3.113 3.113 0 0 1 3.111 3.11A3.113 3.113 0 0 1 8 12a3.113 3.113 0 0 1-3.111-3.111zM7.111 4.889a.444.444 0 0 1 0-.889H8.89a.444.444 0 0 1 0 .889H7.11z"/>
    </g>
</svg>
