<svg xmlns="http://www.w3.org/2000/svg" width="24" height="24" viewBox="0 0 24 24">
    <g fill="none" fill-rule="evenodd">
        <path fill="#FFE95E" d="M22.6 23.524H7V12h15.6z"/>
        <path fill="#000" d="M19.407 9.333H17.95V7.43c0-2.893-2.392-5.239-5.343-5.239-2.95 0-5.343 2.346-5.343 5.239v1.904H5.807c-.805 0-1.457.64-1.457 1.429v9.524c0 .789.652 1.428 1.457 1.428h13.6c.805 0 1.457-.64 1.457-1.428v-9.524c0-.79-.652-1.429-1.457-1.429zM8.72 7.43c0-2.104 1.74-3.81 3.886-3.81s3.886 1.706 3.886 3.81v1.904H8.72V7.43zm10.686 12.857h-13.6v-9.524h13.6v9.524z"/>
        <path fill="#000" d="M12.85 17.905c1.207 0 2.185-.96 2.185-2.143 0-1.184-.978-2.143-2.185-2.143s-2.186.96-2.186 2.143c.003 1.182.98 2.14 2.186 2.143zm0-2.857c.402 0 .728.32.728.714a.722.722 0 0 1-.728.714.722.722 0 0 1-.729-.714c0-.395.326-.714.729-.714z"/>
    </g>
</svg>
