<svg xmlns="http://www.w3.org/2000/svg" width="24" height="24" viewBox="0 0 24 24">
    <g fill="none" fill-rule="evenodd">
        <path fill="#FFE95E" d="M23.66 14.24c-.169-.267-4.2-6.558-10.057-6.558s-9.889 6.29-10.057 6.559a1.334 1.334 0 0 0 0 1.432c.168.268 4.2 6.536 10.052 6.554h.028c5.838 0 9.87-6.29 10.038-6.559.275-.438.273-.99-.005-1.427z"/>
        <path fill="#000" d="M22.16 11.24c-.169-.267-4.2-6.558-10.057-6.558s-9.889 6.29-10.057 6.559a1.334 1.334 0 0 0 0 1.432c.168.268 4.2 6.536 10.052 6.554h.028c5.838 0 9.87-6.29 10.038-6.559.275-.438.273-.99-.005-1.427zm-10.034 6.624c-5.133 0-8.867-5.91-8.867-5.91s3.734-5.909 8.867-5.909c5.133 0 8.867 5.91 8.867 5.91s-3.748 5.909-8.867 5.909z"/>
        <path fill="#000" d="M12.103 8.318c-2.062 0-3.734 1.628-3.734 3.637 0 2.008 1.672 3.636 3.734 3.636 2.062 0 3.733-1.628 3.733-3.636 0-2.009-1.671-3.637-3.733-3.637zm0 5.91c-1.289 0-2.334-1.018-2.334-2.273 0-1.256 1.045-2.273 2.334-2.273 1.288 0 2.333 1.017 2.333 2.273 0 1.255-1.045 2.272-2.333 2.272z"/>
    </g>
</svg>
